<svg xmlns="http://www.w3.org/2000/svg" x="0px" y="0px"
width="32" height="32"
viewBox="0 0 210 210"
style=" fill:#FBB44C;">
    <g transform="translate(-31.5,-31.5) scale(1.3,1.3)">
        <g fill="none" fill-rule="nonzero" stroke="none" stroke-width="1" stroke-linecap="butt" stroke-linejoin="miter" stroke-miterlimit="10" stroke-dasharray="" stroke-dashoffset="0" font-family="none" font-weight="none" font-size="none" text-anchor="none" style="mix-blend-mode: normal">
            <path d="M0,210v-210h210v210z" fill="none"></path>
            <g id="original-icon" fill="#FBB44C">
                <g id="surface1">
                    <path d="M98.4375,26.25v108.69141l-34.6582,-34.6582l-9.43359,9.43359l45.9375,45.9375l4.7168,4.51172l4.7168,-4.51172l45.9375,-45.9375l-9.43359,-9.43359l-34.6582,34.6582v-108.69141zM45.9375,170.625v13.125h118.125v-13.125z"></path>
                </g>
            </g>
            <path d="M105,210c-57.9899,0 -105,-47.0101 -105,-105v0c0,-57.9899 47.0101,-105 105,-105v0c57.9899,0 105,47.0101 105,105v0c0,57.9899 -47.0101,105 -105,105z" fill="none"></path>
            <path d="M105,205.8c-55.6703,0 -100.8,-45.1297 -100.8,-100.8v0c0,-55.6703 45.1297,-100.8 100.8,-100.8h0c55.6703,0 100.8,45.1297 100.8,100.8v0c0,55.6703 -45.1297,100.8 -100.8,100.8z" fill="none"></path>
            <path d="M0,210v-210h210v210z" fill="none"></path>
            <path d="M4.2,205.8v-201.6h201.6v201.6z" fill="none"></path>
            <path d="" fill="none"></path>
            <path d="" fill="none"></path>
        </g>
    </g>
</svg>